<svg width="1720" height="597" viewBox="0 0 1720 597" fill="none" xmlns="http://www.w3.org/2000/svg">
<g opacity="0.6">
<path d="M1688.3 512.921L1688.3 501L1720 501L1720 532.699L1708.17 532.699L1708.17 512.921L1688.3 512.921Z" fill="white"/>
<path d="M1666.9 534.326L1666.9 522.495L1698.6 522.495L1698.6 554.104L1686.68 554.104L1686.68 534.326L1666.9 534.326Z" fill="white"/>
<path d="M1645.49 555.818L1645.49 543.897L1677.1 543.897L1677.1 575.596L1665.27 575.596L1665.27 555.818L1645.49 555.818Z" fill="white"/>
<path d="M1624 577.222L1624 565.301L1655.7 565.301L1655.7 597L1643.78 597L1643.78 577.222L1624 577.222Z" fill="white"/>
</g>
<g clip-path="url(#clip0_2693_456)">
<path d="M1038.08 30.8602C1038.08 32.0247 1037.21 32.8981 1036.04 32.8981C1034.87 32.8981 1034 32.0247 1034 30.8602C1034 29.6956 1034.87 28.8223 1036.04 28.8223C1037.21 28.8223 1038.08 29.7927 1038.08 30.8602Z" fill="white"/>
<path d="M1055.47 30.8602C1055.47 32.0247 1054.6 32.8981 1053.43 32.8981C1052.26 32.8981 1051.39 32.0247 1051.39 30.8602C1051.39 29.6956 1052.26 28.8223 1053.43 28.8223C1054.5 28.8223 1055.47 29.7927 1055.47 30.8602Z" fill="white"/>
<path d="M1072.76 30.8602C1072.76 32.0247 1071.89 32.8981 1070.72 32.8981C1069.56 32.8981 1068.68 32.0247 1068.68 30.8602C1068.68 29.6956 1069.56 28.8223 1070.72 28.8223C1071.89 28.8223 1072.76 29.7927 1072.76 30.8602Z" fill="white"/>
<path d="M1090.15 30.8602C1090.15 32.0247 1089.28 32.8981 1088.11 32.8981C1086.95 32.8981 1086.07 32.0247 1086.07 30.8602C1086.07 29.6956 1086.95 28.8223 1088.11 28.8223C1089.28 28.8223 1090.15 29.7927 1090.15 30.8602Z" fill="white"/>
<path d="M1107.54 30.8602C1107.54 32.0247 1106.67 32.8981 1105.5 32.8981C1104.33 32.8981 1103.46 32.0247 1103.46 30.8602C1103.46 29.6956 1104.33 28.8223 1105.5 28.8223C1106.57 28.8223 1107.54 29.7927 1107.54 30.8602Z" fill="white"/>
<path d="M1124.93 30.8602C1124.93 32.0247 1124.05 32.8981 1122.89 32.8981C1121.72 32.8981 1120.85 32.0247 1120.85 30.8602C1120.85 29.6956 1121.72 28.8223 1122.89 28.8223C1124.05 28.8223 1124.93 29.7927 1124.93 30.8602Z" fill="white"/>
<path d="M1142.22 30.8602C1142.22 32.0247 1141.35 32.8981 1140.18 32.8981C1139.02 32.8981 1138.14 32.0247 1138.14 30.8602C1138.14 29.6956 1139.02 28.8223 1140.18 28.8223C1141.35 28.8223 1142.22 29.7927 1142.22 30.8602Z" fill="white"/>
<path d="M1159.61 30.8602C1159.61 32.0247 1158.74 32.8981 1157.57 32.8981C1156.41 32.8981 1155.53 32.0247 1155.53 30.8602C1155.53 29.6956 1156.41 28.8223 1157.57 28.8223C1158.74 28.8223 1159.61 29.7927 1159.61 30.8602Z" fill="white"/>
<path d="M1177 30.8602C1177 32.0247 1176.13 32.8981 1174.96 32.8981C1173.79 32.8981 1172.92 32.0247 1172.92 30.8602C1172.92 29.6956 1173.79 28.8223 1174.96 28.8223C1176.03 28.8223 1177 29.7927 1177 30.8602Z" fill="white"/>
<path d="M1038.08 45.3191C1038.08 46.4837 1037.21 47.357 1036.04 47.357C1034.87 47.357 1034 46.4837 1034 45.3191C1034 44.1546 1034.87 43.2812 1036.04 43.2812C1037.21 43.2812 1038.08 44.1546 1038.08 45.3191Z" fill="white"/>
<path d="M1055.47 45.3191C1055.47 46.4837 1054.6 47.357 1053.43 47.357C1052.26 47.357 1051.39 46.4837 1051.39 45.3191C1051.39 44.1546 1052.26 43.2812 1053.43 43.2812C1054.5 43.2812 1055.47 44.1546 1055.47 45.3191Z" fill="white"/>
<path d="M1072.76 45.3191C1072.76 46.4837 1071.89 47.357 1070.72 47.357C1069.56 47.357 1068.68 46.4837 1068.68 45.3191C1068.68 44.1546 1069.56 43.2812 1070.72 43.2812C1071.89 43.2812 1072.76 44.1546 1072.76 45.3191Z" fill="white"/>
<path d="M1090.15 45.3191C1090.15 46.4837 1089.28 47.357 1088.11 47.357C1086.95 47.357 1086.07 46.4837 1086.07 45.3191C1086.07 44.1546 1086.95 43.2812 1088.11 43.2812C1089.28 43.2812 1090.15 44.1546 1090.15 45.3191Z" fill="white"/>
<path d="M1107.54 45.3191C1107.54 46.4837 1106.67 47.357 1105.5 47.357C1104.33 47.357 1103.46 46.4837 1103.46 45.3191C1103.46 44.1546 1104.33 43.2812 1105.5 43.2812C1106.57 43.2812 1107.54 44.1546 1107.54 45.3191Z" fill="white"/>
<path d="M1124.93 45.3191C1124.93 46.4837 1124.05 47.357 1122.89 47.357C1121.72 47.357 1120.85 46.4837 1120.85 45.3191C1120.85 44.1546 1121.72 43.2812 1122.89 43.2812C1124.05 43.2812 1124.93 44.1546 1124.93 45.3191Z" fill="white"/>
<path d="M1142.22 45.3191C1142.22 46.4837 1141.35 47.357 1140.18 47.357C1139.02 47.357 1138.14 46.4837 1138.14 45.3191C1138.14 44.1546 1139.02 43.2812 1140.18 43.2812C1141.35 43.2812 1142.22 44.1546 1142.22 45.3191Z" fill="white"/>
<path d="M1159.61 45.3191C1159.61 46.4837 1158.74 47.357 1157.57 47.357C1156.41 47.357 1155.53 46.4837 1155.53 45.3191C1155.53 44.1546 1156.41 43.2812 1157.57 43.2812C1158.74 43.2812 1159.61 44.1546 1159.61 45.3191Z" fill="white"/>
<path d="M1177 45.3191C1177 46.4837 1176.13 47.357 1174.96 47.357C1173.79 47.357 1172.92 46.4837 1172.92 45.3191C1172.92 44.1546 1173.79 43.2812 1174.96 43.2812C1176.03 43.2812 1177 44.1546 1177 45.3191Z" fill="white"/>
<path d="M1038.08 2.03789C1038.08 3.2024 1037.21 4.07579 1036.04 4.07579C1034.87 4.07579 1034 3.2024 1034 2.03789C1034 0.873382 1034.87 0 1036.04 0C1037.21 0 1038.08 0.873382 1038.08 2.03789Z" fill="white"/>
<path d="M1055.47 2.03789C1055.47 3.2024 1054.6 4.07579 1053.43 4.07579C1052.26 4.07579 1051.39 3.2024 1051.39 2.03789C1051.39 0.873382 1052.26 0 1053.43 0C1054.5 0 1055.47 0.873382 1055.47 2.03789Z" fill="white"/>
<path d="M1072.76 2.03789C1072.76 3.2024 1071.89 4.07579 1070.72 4.07579C1069.56 4.07579 1068.68 3.2024 1068.68 2.03789C1068.68 0.873382 1069.65 0 1070.72 0C1071.89 0 1072.76 0.873382 1072.76 2.03789Z" fill="white"/>
<path d="M1090.15 2.03789C1090.15 3.2024 1089.28 4.07579 1088.11 4.07579C1086.95 4.07579 1086.07 3.2024 1086.07 2.03789C1086.07 0.873382 1087.04 0 1088.11 0C1089.18 0 1090.15 0.873382 1090.15 2.03789Z" fill="white"/>
<path d="M1107.54 2.03789C1107.54 3.2024 1106.67 4.07579 1105.5 4.07579C1104.33 4.07579 1103.46 3.2024 1103.46 2.03789C1103.46 0.873382 1104.33 0 1105.5 0C1106.57 0 1107.54 0.873382 1107.54 2.03789Z" fill="white"/>
<path d="M1124.93 2.03789C1124.93 3.2024 1124.05 4.07579 1122.89 4.07579C1121.72 4.07579 1120.85 3.2024 1120.85 2.03789C1120.85 0.873382 1121.72 0 1122.89 0C1124.05 0 1124.93 0.873382 1124.93 2.03789Z" fill="white"/>
<path d="M1142.22 2.03789C1142.22 3.2024 1141.35 4.07579 1140.18 4.07579C1139.02 4.07579 1138.14 3.2024 1138.14 2.03789C1138.14 0.873382 1139.02 0 1140.18 0C1141.35 0 1142.22 0.873382 1142.22 2.03789Z" fill="white"/>
<path d="M1159.61 2.03789C1159.61 3.2024 1158.74 4.07579 1157.57 4.07579C1156.41 4.07579 1155.53 3.2024 1155.53 2.03789C1155.53 0.873382 1156.41 0 1157.57 0C1158.74 0 1159.61 0.873382 1159.61 2.03789Z" fill="white"/>
<path d="M1177 2.03789C1177 3.2024 1176.13 4.07579 1174.96 4.07579C1173.79 4.07579 1172.92 3.2024 1172.92 2.03789C1172.92 0.873382 1173.79 0 1174.96 0C1176.03 0 1177 0.873382 1177 2.03789Z" fill="white"/>
<path d="M1038.08 16.4969C1038.08 17.6614 1037.21 18.5348 1036.04 18.5348C1034.87 18.5348 1034 17.5643 1034 16.4969C1034 15.3324 1034.87 14.459 1036.04 14.459C1037.21 14.459 1038.08 15.3324 1038.08 16.4969Z" fill="white"/>
<path d="M1055.47 16.4969C1055.47 17.6614 1054.6 18.5348 1053.43 18.5348C1052.26 18.5348 1051.39 17.6614 1051.39 16.4969C1051.39 15.3324 1052.26 14.459 1053.43 14.459C1054.5 14.459 1055.47 15.3324 1055.47 16.4969Z" fill="white"/>
<path d="M1072.76 16.4969C1072.76 17.6614 1071.89 18.5348 1070.72 18.5348C1069.56 18.5348 1068.68 17.6614 1068.68 16.4969C1068.68 15.3324 1069.56 14.459 1070.72 14.459C1071.89 14.459 1072.76 15.3324 1072.76 16.4969Z" fill="white"/>
<path d="M1090.15 16.4969C1090.15 17.6614 1089.28 18.5348 1088.11 18.5348C1086.95 18.5348 1086.07 17.6614 1086.07 16.4969C1086.07 15.3324 1086.95 14.459 1088.11 14.459C1089.28 14.459 1090.15 15.3324 1090.15 16.4969Z" fill="white"/>
<path d="M1107.54 16.4969C1107.54 17.6614 1106.67 18.5348 1105.5 18.5348C1104.33 18.5348 1103.46 17.6614 1103.46 16.4969C1103.46 15.3324 1104.33 14.459 1105.5 14.459C1106.57 14.459 1107.54 15.3324 1107.54 16.4969Z" fill="white"/>
<path d="M1124.93 16.4969C1124.93 17.6614 1124.05 18.5348 1122.89 18.5348C1121.72 18.5348 1120.85 17.6614 1120.85 16.4969C1120.85 15.3324 1121.72 14.459 1122.89 14.459C1124.05 14.459 1124.93 15.3324 1124.93 16.4969Z" fill="white"/>
<path d="M1142.22 16.4969C1142.22 17.6614 1141.35 18.5348 1140.18 18.5348C1139.02 18.5348 1138.14 17.6614 1138.14 16.4969C1138.14 15.3324 1139.02 14.459 1140.18 14.459C1141.35 14.459 1142.22 15.3324 1142.22 16.4969Z" fill="white"/>
<path d="M1159.61 16.4969C1159.61 17.6614 1158.74 18.5348 1157.57 18.5348C1156.41 18.5348 1155.53 17.6614 1155.53 16.4969C1155.53 15.3324 1156.41 14.459 1157.57 14.459C1158.74 14.459 1159.61 15.3324 1159.61 16.4969Z" fill="white"/>
<path d="M1177 16.4969C1177 17.6614 1176.13 18.5348 1174.96 18.5348C1173.79 18.5348 1172.92 17.6614 1172.92 16.4969C1172.92 15.3324 1173.79 14.459 1174.96 14.459C1176.03 14.459 1177 15.3324 1177 16.4969Z" fill="white"/>
<path d="M1038.08 59.6805C1038.08 60.845 1037.21 61.7184 1036.04 61.7184C1034.87 61.7184 1034 60.845 1034 59.6805C1034 58.516 1034.87 57.6426 1036.04 57.6426C1037.21 57.6426 1038.08 58.613 1038.08 59.6805Z" fill="white"/>
<path d="M1055.47 59.6805C1055.47 60.845 1054.6 61.7184 1053.43 61.7184C1052.26 61.7184 1051.39 60.845 1051.39 59.6805C1051.39 58.516 1052.26 57.6426 1053.43 57.6426C1054.5 57.6426 1055.47 58.613 1055.47 59.6805Z" fill="white"/>
<path d="M1072.76 59.6805C1072.76 60.845 1071.89 61.7184 1070.72 61.7184C1069.56 61.7184 1068.68 60.845 1068.68 59.6805C1068.68 58.516 1069.56 57.6426 1070.72 57.6426C1071.89 57.6426 1072.76 58.613 1072.76 59.6805Z" fill="white"/>
<path d="M1090.15 59.6805C1090.15 60.845 1089.28 61.7184 1088.11 61.7184C1086.95 61.7184 1086.07 60.845 1086.07 59.6805C1086.07 58.516 1086.95 57.6426 1088.11 57.6426C1089.28 57.6426 1090.15 58.613 1090.15 59.6805Z" fill="white"/>
<path d="M1107.54 59.6805C1107.54 60.845 1106.67 61.7184 1105.5 61.7184C1104.33 61.7184 1103.46 60.845 1103.46 59.6805C1103.46 58.516 1104.33 57.6426 1105.5 57.6426C1106.57 57.6426 1107.54 58.613 1107.54 59.6805Z" fill="white"/>
<path d="M1124.93 59.6805C1124.93 60.845 1124.05 61.7184 1122.89 61.7184C1121.72 61.7184 1120.85 60.845 1120.85 59.6805C1120.85 58.516 1121.72 57.6426 1122.89 57.6426C1124.05 57.6426 1124.93 58.613 1124.93 59.6805Z" fill="white"/>
<path d="M1142.22 59.6805C1142.22 60.845 1141.35 61.7184 1140.18 61.7184C1139.02 61.7184 1138.14 60.845 1138.14 59.6805C1138.14 58.516 1139.02 57.6426 1140.18 57.6426C1141.35 57.6426 1142.22 58.613 1142.22 59.6805Z" fill="white"/>
<path d="M1159.61 59.6805C1159.61 60.845 1158.74 61.7184 1157.57 61.7184C1156.41 61.7184 1155.53 60.845 1155.53 59.6805C1155.53 58.516 1156.41 57.6426 1157.57 57.6426C1158.74 57.6426 1159.61 58.613 1159.61 59.6805Z" fill="white"/>
<path d="M1177 59.6805C1177 60.845 1176.13 61.7184 1174.96 61.7184C1173.79 61.7184 1172.92 60.845 1172.92 59.6805C1172.92 58.516 1173.79 57.6426 1174.96 57.6426C1176.03 57.6426 1177 58.613 1177 59.6805Z" fill="white"/>
<path d="M1038.08 74.1395C1038.08 75.304 1037.21 76.1773 1036.04 76.1773C1034.87 76.1773 1034 75.304 1034 74.1395C1034 72.9749 1034.87 72.1016 1036.04 72.1016C1037.21 72.1016 1038.08 72.9749 1038.08 74.1395Z" fill="white"/>
<path d="M1055.47 74.1395C1055.47 75.304 1054.6 76.1773 1053.43 76.1773C1052.26 76.1773 1051.39 75.304 1051.39 74.1395C1051.39 72.9749 1052.26 72.1016 1053.43 72.1016C1054.5 72.1016 1055.47 72.9749 1055.47 74.1395Z" fill="white"/>
<path d="M1072.76 74.1395C1072.76 75.304 1071.89 76.1773 1070.72 76.1773C1069.56 76.1773 1068.68 75.304 1068.68 74.1395C1068.68 72.9749 1069.56 72.1016 1070.72 72.1016C1071.89 72.1016 1072.76 72.9749 1072.76 74.1395Z" fill="white"/>
<path d="M1088.11 76.1773C1089.24 76.1773 1090.15 75.265 1090.15 74.1395C1090.15 73.014 1089.24 72.1016 1088.11 72.1016C1086.98 72.1016 1086.07 73.014 1086.07 74.1395C1086.07 75.265 1086.98 76.1773 1088.11 76.1773Z" fill="white"/>
<path d="M1107.54 74.1395C1107.54 75.304 1106.67 76.1773 1105.5 76.1773C1104.33 76.1773 1103.46 75.304 1103.46 74.1395C1103.46 72.9749 1104.33 72.1016 1105.5 72.1016C1106.57 72.1016 1107.54 72.9749 1107.54 74.1395Z" fill="white"/>
<path d="M1124.93 74.1395C1124.93 75.304 1124.05 76.1773 1122.89 76.1773C1121.72 76.1773 1120.85 75.304 1120.85 74.1395C1120.85 72.9749 1121.72 72.1016 1122.89 72.1016C1124.05 72.1016 1124.93 72.9749 1124.93 74.1395Z" fill="white"/>
<path d="M1142.22 74.1395C1142.22 75.304 1141.35 76.1773 1140.18 76.1773C1139.02 76.1773 1138.14 75.304 1138.14 74.1395C1138.14 72.9749 1139.02 72.1016 1140.18 72.1016C1141.35 72.1016 1142.22 72.9749 1142.22 74.1395Z" fill="white"/>
<path d="M1157.57 76.1773C1158.7 76.1773 1159.61 75.265 1159.61 74.1395C1159.61 73.014 1158.7 72.1016 1157.57 72.1016C1156.44 72.1016 1155.53 73.014 1155.53 74.1395C1155.53 75.265 1156.44 76.1773 1157.57 76.1773Z" fill="white"/>
<path d="M1177 74.1395C1177 75.304 1176.13 76.1773 1174.96 76.1773C1173.79 76.1773 1172.92 75.304 1172.92 74.1395C1172.92 72.9749 1173.79 72.1016 1174.96 72.1016C1176.03 72.1016 1177 72.9749 1177 74.1395Z" fill="white"/>
<path d="M1038.08 88.6004C1038.08 89.7649 1037.21 90.6383 1036.04 90.6383C1034.87 90.6383 1034 89.7649 1034 88.6004C1034 87.4359 1034.87 86.5625 1036.04 86.5625C1037.21 86.5625 1038.08 87.4359 1038.08 88.6004Z" fill="white"/>
<path d="M1055.47 88.6004C1055.47 89.7649 1054.6 90.6383 1053.43 90.6383C1052.26 90.6383 1051.39 89.7649 1051.39 88.6004C1051.39 87.4359 1052.26 86.5625 1053.43 86.5625C1054.5 86.5625 1055.47 87.4359 1055.47 88.6004Z" fill="white"/>
<path d="M1072.76 88.6004C1072.76 89.7649 1071.89 90.6383 1070.72 90.6383C1069.56 90.6383 1068.68 89.7649 1068.68 88.6004C1068.68 87.4359 1069.56 86.5625 1070.72 86.5625C1071.89 86.5625 1072.76 87.4359 1072.76 88.6004Z" fill="white"/>
<path d="M1090.15 88.6004C1090.15 89.7649 1089.28 90.6383 1088.11 90.6383C1086.95 90.6383 1086.07 89.7649 1086.07 88.6004C1086.07 87.4359 1086.95 86.5625 1088.11 86.5625C1089.28 86.5625 1090.15 87.4359 1090.15 88.6004Z" fill="white"/>
<path d="M1107.54 88.6004C1107.54 89.7649 1106.67 90.6383 1105.5 90.6383C1104.33 90.6383 1103.46 89.7649 1103.46 88.6004C1103.46 87.4359 1104.33 86.5625 1105.5 86.5625C1106.57 86.5625 1107.54 87.4359 1107.54 88.6004Z" fill="white"/>
<path d="M1124.93 88.6004C1124.93 89.7649 1124.05 90.6383 1122.89 90.6383C1121.72 90.6383 1120.85 89.7649 1120.85 88.6004C1120.85 87.4359 1121.72 86.5625 1122.89 86.5625C1124.05 86.5625 1124.93 87.4359 1124.93 88.6004Z" fill="white"/>
<path d="M1142.22 88.6004C1142.22 89.7649 1141.35 90.6383 1140.18 90.6383C1139.02 90.6383 1138.14 89.7649 1138.14 88.6004C1138.14 87.4359 1139.02 86.5625 1140.18 86.5625C1141.35 86.5625 1142.22 87.4359 1142.22 88.6004Z" fill="white"/>
<path d="M1159.61 88.6004C1159.61 89.7649 1158.74 90.6383 1157.57 90.6383C1156.41 90.6383 1155.53 89.7649 1155.53 88.6004C1155.53 87.4359 1156.41 86.5625 1157.57 86.5625C1158.74 86.5625 1159.61 87.4359 1159.61 88.6004Z" fill="white"/>
<path d="M1177 88.6004C1177 89.7649 1176.13 90.6383 1174.96 90.6383C1173.79 90.6383 1172.92 89.7649 1172.92 88.6004C1172.92 87.4359 1173.79 86.5625 1174.96 86.5625C1176.03 86.5625 1177 87.4359 1177 88.6004Z" fill="white"/>
<path d="M1038.08 102.962C1038.08 104.126 1037.21 105 1036.04 105C1034.87 105 1034 104.126 1034 102.962C1034 101.797 1034.87 100.924 1036.04 100.924C1037.21 100.924 1038.08 101.894 1038.08 102.962Z" fill="white"/>
<path d="M1055.47 102.962C1055.47 104.126 1054.6 105 1053.43 105C1052.26 105 1051.39 104.126 1051.39 102.962C1051.39 101.797 1052.26 100.924 1053.43 100.924C1054.5 100.924 1055.47 101.894 1055.47 102.962Z" fill="white"/>
<path d="M1072.76 102.962C1072.76 104.126 1071.89 105 1070.72 105C1069.56 105 1068.68 104.126 1068.68 102.962C1068.68 101.797 1069.56 100.924 1070.72 100.924C1071.89 100.924 1072.76 101.894 1072.76 102.962Z" fill="white"/>
<path d="M1090.15 102.962C1090.15 104.126 1089.28 105 1088.11 105C1086.95 105 1086.07 104.126 1086.07 102.962C1086.07 101.797 1086.95 100.924 1088.11 100.924C1089.28 100.924 1090.15 101.894 1090.15 102.962Z" fill="white"/>
<path d="M1107.54 102.962C1107.54 104.126 1106.67 105 1105.5 105C1104.33 105 1103.46 104.126 1103.46 102.962C1103.46 101.797 1104.33 100.924 1105.5 100.924C1106.57 100.924 1107.54 101.894 1107.54 102.962Z" fill="white"/>
<path d="M1124.93 102.962C1124.93 104.126 1124.05 105 1122.89 105C1121.72 105 1120.85 104.126 1120.85 102.962C1120.85 101.797 1121.72 100.924 1122.89 100.924C1124.05 100.924 1124.93 101.894 1124.93 102.962Z" fill="white"/>
<path d="M1142.22 102.962C1142.22 104.126 1141.35 105 1140.18 105C1139.02 105 1138.14 104.126 1138.14 102.962C1138.14 101.797 1139.02 100.924 1140.18 100.924C1141.35 100.924 1142.22 101.894 1142.22 102.962Z" fill="white"/>
<path d="M1159.61 102.962C1159.61 104.126 1158.74 105 1157.57 105C1156.41 105 1155.53 104.126 1155.53 102.962C1155.53 101.797 1156.41 100.924 1157.57 100.924C1158.74 100.924 1159.61 101.894 1159.61 102.962Z" fill="white"/>
<path d="M1177 102.962C1177 104.126 1176.13 105 1174.96 105C1173.79 105 1172.92 104.126 1172.92 102.962C1172.92 101.797 1173.79 100.924 1174.96 100.924C1176.03 100.924 1177 101.894 1177 102.962Z" fill="white"/>
</g>
<path opacity="0.6" d="M27 81.9782C17.6376 91.3406 2.38422 91.3406 -6.97819 81.9782C-16.3406 72.6158 -16.3406 57.3624 -6.97819 48L27 81.9782Z" fill="white"/>
<defs>
<clipPath id="clip0_2693_456">
<rect width="143" height="105" fill="white" transform="translate(1034)"/>
</clipPath>
</defs>
</svg>
