<svg width="1006" height="371" viewBox="0 0 1006 371" fill="none" xmlns="http://www.w3.org/2000/svg">
<g opacity="0.6">
<path d="M987.61 318.75L987.61 311.342L1006 311.342L1006 331.041L999.136 331.041L999.136 318.75L987.61 318.75Z" fill="white"/>
<path d="M975.193 332.053L975.193 324.701L993.583 324.701L993.583 344.344L986.667 344.344L986.667 332.053L975.193 332.053Z" fill="white"/>
<path d="M962.775 345.408L962.775 338L981.113 338L981.113 357.699L974.25 357.699L974.25 345.408L962.775 345.408Z" fill="white"/>
<path d="M950.305 358.709L950.305 351.301L968.695 351.301L968.695 371L961.779 371L961.779 358.709L950.305 358.709Z" fill="white"/>
</g>
<g clip-path="url(#clip0_2693_456)">
<path d="M610.376 19.1766C610.376 19.9003 609.869 20.443 609.193 20.443C608.517 20.443 608.009 19.9003 608.009 19.1766C608.009 18.4529 608.517 17.9102 609.193 17.9102C609.869 17.9102 610.376 18.5132 610.376 19.1766Z" fill="white"/>
<path d="M620.465 19.1766C620.465 19.9003 619.958 20.443 619.281 20.443C618.605 20.443 618.098 19.9003 618.098 19.1766C618.098 18.4529 618.605 17.9102 619.281 17.9102C619.901 17.9102 620.465 18.5132 620.465 19.1766Z" fill="white"/>
<path d="M630.497 19.1766C630.497 19.9003 629.99 20.443 629.313 20.443C628.637 20.443 628.13 19.9003 628.13 19.1766C628.13 18.4529 628.637 17.9102 629.313 17.9102C629.99 17.9102 630.497 18.5132 630.497 19.1766Z" fill="white"/>
<path d="M640.586 19.1766C640.586 19.9003 640.079 20.443 639.402 20.443C638.726 20.443 638.219 19.9003 638.219 19.1766C638.219 18.4529 638.726 17.9102 639.402 17.9102C640.079 17.9102 640.586 18.5132 640.586 19.1766Z" fill="white"/>
<path d="M650.674 19.1766C650.674 19.9003 650.167 20.443 649.491 20.443C648.814 20.443 648.307 19.9003 648.307 19.1766C648.307 18.4529 648.814 17.9102 649.491 17.9102C650.111 17.9102 650.674 18.5132 650.674 19.1766Z" fill="white"/>
<path d="M660.763 19.1766C660.763 19.9003 660.256 20.443 659.58 20.443C658.903 20.443 658.396 19.9003 658.396 19.1766C658.396 18.4529 658.903 17.9102 659.58 17.9102C660.256 17.9102 660.763 18.5132 660.763 19.1766Z" fill="white"/>
<path d="M670.795 19.1766C670.795 19.9003 670.288 20.443 669.612 20.443C668.935 20.443 668.428 19.9003 668.428 19.1766C668.428 18.4529 668.935 17.9102 669.612 17.9102C670.288 17.9102 670.795 18.5132 670.795 19.1766Z" fill="white"/>
<path d="M680.884 19.1766C680.884 19.9003 680.377 20.443 679.7 20.443C679.024 20.443 678.517 19.9003 678.517 19.1766C678.517 18.4529 679.024 17.9102 679.7 17.9102C680.377 17.9102 680.884 18.5132 680.884 19.1766Z" fill="white"/>
<path d="M690.973 19.1766C690.973 19.9003 690.465 20.443 689.789 20.443C689.113 20.443 688.605 19.9003 688.605 19.1766C688.605 18.4529 689.113 17.9102 689.789 17.9102C690.409 17.9102 690.973 18.5132 690.973 19.1766Z" fill="white"/>
<path d="M610.376 28.1629C610.376 28.8866 609.869 29.4293 609.193 29.4293C608.517 29.4293 608.009 28.8866 608.009 28.1629C608.009 27.4392 608.517 26.8965 609.193 26.8965C609.869 26.8965 610.376 27.4392 610.376 28.1629Z" fill="white"/>
<path d="M620.465 28.1629C620.465 28.8866 619.958 29.4293 619.281 29.4293C618.605 29.4293 618.098 28.8866 618.098 28.1629C618.098 27.4392 618.605 26.8965 619.281 26.8965C619.901 26.8965 620.465 27.4392 620.465 28.1629Z" fill="white"/>
<path d="M630.497 28.1629C630.497 28.8866 629.99 29.4293 629.313 29.4293C628.637 29.4293 628.13 28.8866 628.13 28.1629C628.13 27.4392 628.637 26.8965 629.313 26.8965C629.99 26.8965 630.497 27.4392 630.497 28.1629Z" fill="white"/>
<path d="M640.586 28.1629C640.586 28.8866 640.079 29.4293 639.402 29.4293C638.726 29.4293 638.219 28.8866 638.219 28.1629C638.219 27.4392 638.726 26.8965 639.402 26.8965C640.079 26.8965 640.586 27.4392 640.586 28.1629Z" fill="white"/>
<path d="M650.674 28.1629C650.674 28.8866 650.167 29.4293 649.491 29.4293C648.814 29.4293 648.307 28.8866 648.307 28.1629C648.307 27.4392 648.814 26.8965 649.491 26.8965C650.111 26.8965 650.674 27.4392 650.674 28.1629Z" fill="white"/>
<path d="M660.763 28.1629C660.763 28.8866 660.256 29.4293 659.58 29.4293C658.903 29.4293 658.396 28.8866 658.396 28.1629C658.396 27.4392 658.903 26.8965 659.58 26.8965C660.256 26.8965 660.763 27.4392 660.763 28.1629Z" fill="white"/>
<path d="M670.795 28.1629C670.795 28.8866 670.288 29.4293 669.612 29.4293C668.935 29.4293 668.428 28.8866 668.428 28.1629C668.428 27.4392 668.935 26.8965 669.612 26.8965C670.288 26.8965 670.795 27.4392 670.795 28.1629Z" fill="white"/>
<path d="M680.884 28.1629C680.884 28.8866 680.377 29.4293 679.7 29.4293C679.024 29.4293 678.517 28.8866 678.517 28.1629C678.517 27.4392 679.024 26.8965 679.7 26.8965C680.377 26.8965 680.884 27.4392 680.884 28.1629Z" fill="white"/>
<path d="M690.973 28.1629C690.973 28.8866 690.465 29.4293 689.789 29.4293C689.113 29.4293 688.605 28.8866 688.605 28.1629C688.605 27.4392 689.113 26.8965 689.789 26.8965C690.409 26.8965 690.973 27.4392 690.973 28.1629Z" fill="white"/>
<path d="M610.376 1.26643C610.376 1.9901 609.869 2.53286 609.193 2.53286C608.517 2.53286 608.009 1.9901 608.009 1.26643C608.009 0.542755 608.517 0 609.193 0C609.869 0 610.376 0.542755 610.376 1.26643Z" fill="white"/>
<path d="M620.465 1.26643C620.465 1.9901 619.958 2.53286 619.281 2.53286C618.605 2.53286 618.098 1.9901 618.098 1.26643C618.098 0.542755 618.605 0 619.281 0C619.901 0 620.465 0.542755 620.465 1.26643Z" fill="white"/>
<path d="M630.497 1.26643C630.497 1.9901 629.99 2.53286 629.313 2.53286C628.637 2.53286 628.13 1.9901 628.13 1.26643C628.13 0.542755 628.693 0 629.313 0C629.99 0 630.497 0.542755 630.497 1.26643Z" fill="white"/>
<path d="M640.586 1.26643C640.586 1.9901 640.079 2.53286 639.402 2.53286C638.726 2.53286 638.219 1.9901 638.219 1.26643C638.219 0.542755 638.782 0 639.402 0C640.022 0 640.586 0.542755 640.586 1.26643Z" fill="white"/>
<path d="M650.674 1.26643C650.674 1.9901 650.167 2.53286 649.491 2.53286C648.814 2.53286 648.307 1.9901 648.307 1.26643C648.307 0.542755 648.814 0 649.491 0C650.111 0 650.674 0.542755 650.674 1.26643Z" fill="white"/>
<path d="M660.763 1.26643C660.763 1.9901 660.256 2.53286 659.58 2.53286C658.903 2.53286 658.396 1.9901 658.396 1.26643C658.396 0.542755 658.903 0 659.58 0C660.256 0 660.763 0.542755 660.763 1.26643Z" fill="white"/>
<path d="M670.795 1.26643C670.795 1.9901 670.288 2.53286 669.612 2.53286C668.935 2.53286 668.428 1.9901 668.428 1.26643C668.428 0.542755 668.935 0 669.612 0C670.288 0 670.795 0.542755 670.795 1.26643Z" fill="white"/>
<path d="M680.884 1.26643C680.884 1.9901 680.377 2.53286 679.7 2.53286C679.024 2.53286 678.517 1.9901 678.517 1.26643C678.517 0.542755 679.024 0 679.7 0C680.377 0 680.884 0.542755 680.884 1.26643Z" fill="white"/>
<path d="M690.973 1.26643C690.973 1.9901 690.465 2.53286 689.789 2.53286C689.113 2.53286 688.605 1.9901 688.605 1.26643C688.605 0.542755 689.113 0 689.789 0C690.409 0 690.973 0.542755 690.973 1.26643Z" fill="white"/>
<path d="M610.376 10.2528C610.376 10.9764 609.869 11.5192 609.193 11.5192C608.517 11.5192 608.009 10.9161 608.009 10.2528C608.009 9.52908 608.517 8.98633 609.193 8.98633C609.869 8.98633 610.376 9.52908 610.376 10.2528Z" fill="white"/>
<path d="M620.465 10.2528C620.465 10.9764 619.958 11.5192 619.281 11.5192C618.605 11.5192 618.098 10.9764 618.098 10.2528C618.098 9.52908 618.605 8.98633 619.281 8.98633C619.901 8.98633 620.465 9.52908 620.465 10.2528Z" fill="white"/>
<path d="M630.497 10.2528C630.497 10.9764 629.99 11.5192 629.313 11.5192C628.637 11.5192 628.13 10.9764 628.13 10.2528C628.13 9.52908 628.637 8.98633 629.313 8.98633C629.99 8.98633 630.497 9.52908 630.497 10.2528Z" fill="white"/>
<path d="M640.586 10.2528C640.586 10.9764 640.079 11.5192 639.402 11.5192C638.726 11.5192 638.219 10.9764 638.219 10.2528C638.219 9.52908 638.726 8.98633 639.402 8.98633C640.079 8.98633 640.586 9.52908 640.586 10.2528Z" fill="white"/>
<path d="M650.674 10.2528C650.674 10.9764 650.167 11.5192 649.491 11.5192C648.814 11.5192 648.307 10.9764 648.307 10.2528C648.307 9.52908 648.814 8.98633 649.491 8.98633C650.111 8.98633 650.674 9.52908 650.674 10.2528Z" fill="white"/>
<path d="M660.763 10.2528C660.763 10.9764 660.256 11.5192 659.58 11.5192C658.903 11.5192 658.396 10.9764 658.396 10.2528C658.396 9.52908 658.903 8.98633 659.58 8.98633C660.256 8.98633 660.763 9.52908 660.763 10.2528Z" fill="white"/>
<path d="M670.795 10.2528C670.795 10.9764 670.288 11.5192 669.612 11.5192C668.935 11.5192 668.428 10.9764 668.428 10.2528C668.428 9.52908 668.935 8.98633 669.612 8.98633C670.288 8.98633 670.795 9.52908 670.795 10.2528Z" fill="white"/>
<path d="M680.884 10.2528C680.884 10.9764 680.377 11.5192 679.7 11.5192C679.024 11.5192 678.517 10.9764 678.517 10.2528C678.517 9.52908 679.024 8.98633 679.7 8.98633C680.377 8.98633 680.884 9.52908 680.884 10.2528Z" fill="white"/>
<path d="M690.973 10.2528C690.973 10.9764 690.465 11.5192 689.789 11.5192C689.113 11.5192 688.605 10.9764 688.605 10.2528C688.605 9.52908 689.113 8.98633 689.789 8.98633C690.409 8.98633 690.973 9.52908 690.973 10.2528Z" fill="white"/>
<path d="M610.376 37.0887C610.376 37.8124 609.869 38.3551 609.193 38.3551C608.517 38.3551 608.009 37.8124 608.009 37.0887C608.009 36.365 608.517 35.8223 609.193 35.8223C609.869 35.8223 610.376 36.4253 610.376 37.0887Z" fill="white"/>
<path d="M620.465 37.0887C620.465 37.8124 619.958 38.3551 619.281 38.3551C618.605 38.3551 618.098 37.8124 618.098 37.0887C618.098 36.365 618.605 35.8223 619.281 35.8223C619.901 35.8223 620.465 36.4253 620.465 37.0887Z" fill="white"/>
<path d="M630.497 37.0887C630.497 37.8124 629.99 38.3551 629.313 38.3551C628.637 38.3551 628.13 37.8124 628.13 37.0887C628.13 36.365 628.637 35.8223 629.313 35.8223C629.99 35.8223 630.497 36.4253 630.497 37.0887Z" fill="white"/>
<path d="M640.586 37.0887C640.586 37.8124 640.079 38.3551 639.402 38.3551C638.726 38.3551 638.219 37.8124 638.219 37.0887C638.219 36.365 638.726 35.8223 639.402 35.8223C640.079 35.8223 640.586 36.4253 640.586 37.0887Z" fill="white"/>
<path d="M650.674 37.0887C650.674 37.8124 650.167 38.3551 649.491 38.3551C648.814 38.3551 648.307 37.8124 648.307 37.0887C648.307 36.365 648.814 35.8223 649.491 35.8223C650.111 35.8223 650.674 36.4253 650.674 37.0887Z" fill="white"/>
<path d="M660.763 37.0887C660.763 37.8124 660.256 38.3551 659.58 38.3551C658.903 38.3551 658.396 37.8124 658.396 37.0887C658.396 36.365 658.903 35.8223 659.58 35.8223C660.256 35.8223 660.763 36.4253 660.763 37.0887Z" fill="white"/>
<path d="M670.795 37.0887C670.795 37.8124 670.288 38.3551 669.612 38.3551C668.935 38.3551 668.428 37.8124 668.428 37.0887C668.428 36.365 668.935 35.8223 669.612 35.8223C670.288 35.8223 670.795 36.4253 670.795 37.0887Z" fill="white"/>
<path d="M680.884 37.0887C680.884 37.8124 680.377 38.3551 679.7 38.3551C679.024 38.3551 678.517 37.8124 678.517 37.0887C678.517 36.365 679.024 35.8223 679.7 35.8223C680.377 35.8223 680.884 36.4253 680.884 37.0887Z" fill="white"/>
<path d="M690.973 37.0887C690.973 37.8124 690.465 38.3551 689.789 38.3551C689.113 38.3551 688.605 37.8124 688.605 37.0887C688.605 36.365 689.113 35.8223 689.789 35.8223C690.409 35.8223 690.973 36.4253 690.973 37.0887Z" fill="white"/>
<path d="M610.376 46.0731C610.376 46.7967 609.869 47.3395 609.193 47.3395C608.517 47.3395 608.009 46.7967 608.009 46.0731C608.009 45.3494 608.517 44.8066 609.193 44.8066C609.869 44.8066 610.376 45.3494 610.376 46.0731Z" fill="white"/>
<path d="M620.465 46.0731C620.465 46.7967 619.958 47.3395 619.281 47.3395C618.605 47.3395 618.098 46.7967 618.098 46.0731C618.098 45.3494 618.605 44.8066 619.281 44.8066C619.901 44.8066 620.465 45.3494 620.465 46.0731Z" fill="white"/>
<path d="M630.497 46.0731C630.497 46.7967 629.99 47.3395 629.313 47.3395C628.637 47.3395 628.13 46.7967 628.13 46.0731C628.13 45.3494 628.637 44.8066 629.313 44.8066C629.99 44.8066 630.497 45.3494 630.497 46.0731Z" fill="white"/>
<path d="M639.402 47.3395C640.056 47.3395 640.586 46.7725 640.586 46.0731C640.586 45.3736 640.056 44.8066 639.402 44.8066C638.749 44.8066 638.219 45.3736 638.219 46.0731C638.219 46.7725 638.749 47.3395 639.402 47.3395Z" fill="white"/>
<path d="M650.674 46.0731C650.674 46.7967 650.167 47.3395 649.491 47.3395C648.814 47.3395 648.307 46.7967 648.307 46.0731C648.307 45.3494 648.814 44.8066 649.491 44.8066C650.111 44.8066 650.674 45.3494 650.674 46.0731Z" fill="white"/>
<path d="M660.763 46.0731C660.763 46.7967 660.256 47.3395 659.58 47.3395C658.903 47.3395 658.396 46.7967 658.396 46.0731C658.396 45.3494 658.903 44.8066 659.58 44.8066C660.256 44.8066 660.763 45.3494 660.763 46.0731Z" fill="white"/>
<path d="M670.795 46.0731C670.795 46.7967 670.288 47.3395 669.612 47.3395C668.935 47.3395 668.428 46.7967 668.428 46.0731C668.428 45.3494 668.935 44.8066 669.612 44.8066C670.288 44.8066 670.795 45.3494 670.795 46.0731Z" fill="white"/>
<path d="M679.7 47.3395C680.354 47.3395 680.884 46.7725 680.884 46.0731C680.884 45.3736 680.354 44.8066 679.7 44.8066C679.047 44.8066 678.517 45.3736 678.517 46.0731C678.517 46.7725 679.047 47.3395 679.7 47.3395Z" fill="white"/>
<path d="M690.973 46.0731C690.973 46.7967 690.465 47.3395 689.789 47.3395C689.113 47.3395 688.605 46.7967 688.605 46.0731C688.605 45.3494 689.113 44.8066 689.789 44.8066C690.409 44.8066 690.973 45.3494 690.973 46.0731Z" fill="white"/>
<path d="M610.376 55.0594C610.376 55.7831 609.869 56.3258 609.193 56.3258C608.517 56.3258 608.009 55.7831 608.009 55.0594C608.009 54.3357 608.517 53.793 609.193 53.793C609.869 53.793 610.376 54.3357 610.376 55.0594Z" fill="white"/>
<path d="M620.465 55.0594C620.465 55.7831 619.958 56.3258 619.281 56.3258C618.605 56.3258 618.098 55.7831 618.098 55.0594C618.098 54.3357 618.605 53.793 619.281 53.793C619.901 53.793 620.465 54.3357 620.465 55.0594Z" fill="white"/>
<path d="M630.497 55.0594C630.497 55.7831 629.99 56.3258 629.313 56.3258C628.637 56.3258 628.13 55.7831 628.13 55.0594C628.13 54.3357 628.637 53.793 629.313 53.793C629.99 53.793 630.497 54.3357 630.497 55.0594Z" fill="white"/>
<path d="M640.586 55.0594C640.586 55.7831 640.079 56.3258 639.402 56.3258C638.726 56.3258 638.219 55.7831 638.219 55.0594C638.219 54.3357 638.726 53.793 639.402 53.793C640.079 53.793 640.586 54.3357 640.586 55.0594Z" fill="white"/>
<path d="M650.674 55.0594C650.674 55.7831 650.167 56.3258 649.491 56.3258C648.814 56.3258 648.307 55.7831 648.307 55.0594C648.307 54.3357 648.814 53.793 649.491 53.793C650.111 53.793 650.674 54.3357 650.674 55.0594Z" fill="white"/>
<path d="M660.763 55.0594C660.763 55.7831 660.256 56.3258 659.58 56.3258C658.903 56.3258 658.396 55.7831 658.396 55.0594C658.396 54.3357 658.903 53.793 659.58 53.793C660.256 53.793 660.763 54.3357 660.763 55.0594Z" fill="white"/>
<path d="M670.795 55.0594C670.795 55.7831 670.288 56.3258 669.612 56.3258C668.935 56.3258 668.428 55.7831 668.428 55.0594C668.428 54.3357 668.935 53.793 669.612 53.793C670.288 53.793 670.795 54.3357 670.795 55.0594Z" fill="white"/>
<path d="M680.884 55.0594C680.884 55.7831 680.377 56.3258 679.7 56.3258C679.024 56.3258 678.517 55.7831 678.517 55.0594C678.517 54.3357 679.024 53.793 679.7 53.793C680.377 53.793 680.884 54.3357 680.884 55.0594Z" fill="white"/>
<path d="M690.973 55.0594C690.973 55.7831 690.465 56.3258 689.789 56.3258C689.113 56.3258 688.605 55.7831 688.605 55.0594C688.605 54.3357 689.113 53.793 689.789 53.793C690.409 53.793 690.973 54.3357 690.973 55.0594Z" fill="white"/>
<path d="M610.376 63.9852C610.376 64.7089 609.869 65.2516 609.193 65.2516C608.517 65.2516 608.009 64.7089 608.009 63.9852C608.009 63.2615 608.517 62.7188 609.193 62.7188C609.869 62.7188 610.376 63.3218 610.376 63.9852Z" fill="white"/>
<path d="M620.465 63.9852C620.465 64.7089 619.958 65.2516 619.281 65.2516C618.605 65.2516 618.098 64.7089 618.098 63.9852C618.098 63.2615 618.605 62.7188 619.281 62.7188C619.901 62.7188 620.465 63.3218 620.465 63.9852Z" fill="white"/>
<path d="M630.497 63.9852C630.497 64.7089 629.99 65.2516 629.313 65.2516C628.637 65.2516 628.13 64.7089 628.13 63.9852C628.13 63.2615 628.637 62.7188 629.313 62.7188C629.99 62.7188 630.497 63.3218 630.497 63.9852Z" fill="white"/>
<path d="M640.586 63.9852C640.586 64.7089 640.079 65.2516 639.402 65.2516C638.726 65.2516 638.219 64.7089 638.219 63.9852C638.219 63.2615 638.726 62.7188 639.402 62.7188C640.079 62.7188 640.586 63.3218 640.586 63.9852Z" fill="white"/>
<path d="M650.674 63.9852C650.674 64.7089 650.167 65.2516 649.491 65.2516C648.814 65.2516 648.307 64.7089 648.307 63.9852C648.307 63.2615 648.814 62.7188 649.491 62.7188C650.111 62.7188 650.674 63.3218 650.674 63.9852Z" fill="white"/>
<path d="M660.763 63.9852C660.763 64.7089 660.256 65.2516 659.58 65.2516C658.903 65.2516 658.396 64.7089 658.396 63.9852C658.396 63.2615 658.903 62.7188 659.58 62.7188C660.256 62.7188 660.763 63.3218 660.763 63.9852Z" fill="white"/>
<path d="M670.795 63.9852C670.795 64.7089 670.288 65.2516 669.612 65.2516C668.935 65.2516 668.428 64.7089 668.428 63.9852C668.428 63.2615 668.935 62.7188 669.612 62.7188C670.288 62.7188 670.795 63.3218 670.795 63.9852Z" fill="white"/>
<path d="M680.884 63.9852C680.884 64.7089 680.377 65.2516 679.7 65.2516C679.024 65.2516 678.517 64.7089 678.517 63.9852C678.517 63.2615 679.024 62.7188 679.7 62.7188C680.377 62.7188 680.884 63.3218 680.884 63.9852Z" fill="white"/>
<path d="M690.973 63.9852C690.973 64.7089 690.465 65.2516 689.789 65.2516C689.113 65.2516 688.605 64.7089 688.605 63.9852C688.605 63.2615 689.113 62.7188 689.789 62.7188C690.409 62.7188 690.973 63.3218 690.973 63.9852Z" fill="white"/>
</g>
<path opacity="0.6" d="M23.7866 50.9455C18.3549 56.7637 9.5055 56.7637 4.07379 50.9455C-1.35793 45.1273 -1.35793 35.6483 4.07379 29.8301L23.7866 50.9455Z" fill="white"/>
<defs>
<clipPath id="clip0_2693_456">
<rect width="82.9631" height="65.2513" fill="white" transform="translate(608.009)"/>
</clipPath>
</defs>
</svg>
